/* XPM */
static char *_849e50904414630b132dc0ff199c562FVgoYOOAvET4oURt[] = {
/* columns rows colors chars-per-pixel */
"64 64 13 1 ",
"  c None",
". c #7C1857",
"X c #7F314B",
"o c #185B47",
"O c #E12136",
"+ c #AC1D49",
"@ c #B45565",
"# c #2C8B59",
"$ c #45BB58",
"% c #EE9A32",
"& c #DA9271",
"* c #FEDC4B",
"= c #EEBE92",
/* pixels */
"                                                                ",
"                                                                ",
"                                                                ",
"                                                                ",
"                                                                ",
"                                                                ",
"                            &&&&&&&&&&                          ",
"                            &&&&&&&&&&                          ",
"                        &&==&&&&&&&&&&&&&&                      ",
"                        &&==&&&&&&&&&&&&&&                      ",
"                    &&&&&&&&==&&&&&&&&&&&&&&&&                  ",
"                    &&&&&&&&==&&&&&&&&&&&&&&&&                  ",
"                  &&&&&&&&&&&&&&&&&&&&&&==&&&&&&                ",
"                  &&&&&&&&&&&&&&&&&&&&&&==&&&&&&                ",
"                  &&&&&&&&&&==&&&&&&&&==&&&&&&&&                ",
"                  &&&&&&&&&&==&&&&&&&&==&&&&&&&&                ",
"                &&&&&&&&&&==&&&&&&&&&&&&&&&&&&&&&&              ",
"                &&&&&&&&&&==&&&&&&&&&&&&&&&&&&&&&&              ",
"                &&&&==&&&&&&&&&&==&&&&&&&&==&&==&&              ",
"                &&&&==&&&&&&&&&&==&&&&&&&&==&&==&&              ",
"              &&&&==&&&&&&&&&&&&&&==&&&&&&&&==&&==&&            ",
"              &&&&==&&&&&&&&&&&&&&==&&&&&&&&==&&==&&            ",
"              &&&&&&&&&&&&&&==&&&&&&&&&&==&&&&&&&&&&            ",
"              &&&&&&&&&&&&&&==&&&&&&&&&&==&&&&&&&&&&            ",
"            oo@@@@@@@@@@&&&&&&==&&&&&&==&&@@@@@@@@XX            ",
"            oo@@@@@@@@@@&&&&&&==&&&&&&==&&@@@@@@@@XX            ",
"            ooooXXXXXXXX@@@@@@@@@@@@@@@@@@@@@@@@XXoooo          ",
"            ooooXXXXXXXX@@@@@@@@@@@@@@@@@@@@@@@@XXoooo          ",
"          $$$$ooooooooooXXXXXXXXXXXXXXXXXXXXXXXXoo$$$$          ",
"          $$$$ooooooooooXXXXXXXXXXXXXXXXXXXXXXXXoo$$$$          ",
"          $$$$##$$$$##oooooooooooooooooooooo##$$####$$          ",
"          $$$$##$$$$##oooooooooooooooooooooo##$$####$$          ",
"              $$$$$$$$####$$$$####$$##$$$$##$$$$$$$$            ",
"              $$$$$$$$####$$$$####$$##$$$$##$$$$$$$$            ",
"              ..$$$$####$$$$$$##$$$$##$$$$##$$$$....            ",
"              ..$$$$####$$$$$$##$$$$##$$$$##$$$$....            ",
"              ......$$....$$$$..$$$$$$$$$$..........            ",
"              ......$$....$$$$..$$$$$$$$$$..........            ",
"              %%**....OOOO++++++++++++$$++++++OOXX..            ",
"              %%**....OOOO++++++++++++$$++++++OOXX..            ",
"              XX%%**OO++++OOOO++++OOOO++++OOOO****@@            ",
"              XX%%**OO++++OOOO++++OOOO++++OOOO****@@            ",
"              XX@@%%****OOOOOOOOOOOOOOOOOO****%%XXXX            ",
"              XX@@%%****OOOOOOOOOOOOOOOOOO****%%XXXX            ",
"              XXXX@@%%%%******************%%@@@@XXXX            ",
"              XXXX@@%%%%******************%%@@@@XXXX            ",
"              &&XXXX%%%%%%%%%%@@@@@@@@@@@@XXXXXXXX&&            ",
"              &&XXXX%%%%%%%%%%@@@@@@@@@@@@XXXXXXXX&&            ",
"              @@&&XX%%XXXXXXXXXXXXXXXXXXXXXXXX&&&&@@            ",
"              @@&&XX%%XXXXXXXXXXXXXXXXXXXXXXXX&&&&@@            ",
"              @@@@&&&&&&XXXXXXXXXXXXXXXXXX&&&&@@@@@@            ",
"              @@@@&&&&&&XXXXXXXXXXXXXXXXXX&&&&@@@@@@            ",
"                @@@@@@&&&&&&&&&&&&&&&&&&&&@@@@@@@@              ",
"                @@@@@@&&&&&&&&&&&&&&&&&&&&@@@@@@@@              ",
"                      @@@@@@@@@@@@@@@@@@@@@@                    ",
"                      @@@@@@@@@@@@@@@@@@@@@@                    ",
"                                                                ",
"                                                                ",
"                                                                ",
"                                                                ",
"                                                                ",
"                                                                ",
"                                                                ",
"                                                                "
};