/* XPM */
static char *_3e5cf78e4af4ea5c7adab86ff1c7d06yRVFvNxCBfvoD0ag[] = {
/* columns rows colors chars-per-pixel */
"32 32 8 1 ",
"  c None",
". c black",
"X c #57402B",
"o c #FC3222",
"O c #31FD32",
"+ c #FD8329",
"@ c #DEAA6D",
"# c white",
/* pixels */
"                                ",
"                                ",
"                                ",
"                                ",
"                                ",
"                                ",
"        ...............         ",
"       .@@##@@@@@@@@@@@.        ",
"      .@@##@@@@@@@@@@@@@.       ",
"     .@@@#@@@@@@@@@@@@@@@.      ",
"     .@@@@@@@@@@@@@@@@@@@.      ",
"     .@@@@@@@@@@@@@@@@@@@.      ",
"      ...................       ",
"      OOOOOOOOOOOOOOOOOOO       ",
"     OOOOOOOXOOOOOOOOOOOOO      ",
"      OXXOOXXXXXOOOXOOXXO       ",
"      XXXXXXXXXXXXXXXXXXX       ",
"       ++++++oo+oo++++++        ",
"      XX++++oooooooo+++XX       ",
"      XXX++XXXXXXXXXX+XXX       ",
"      XXXXXXXXXXXXXXXXXXX       ",
"     .....................      ",
"    .@@@@@@@@@@@@@@@@@#@@@.     ",
"    .@@@@@@@@@@@@@@@@#@@@@.     ",
"     .....................      ",
"                                ",
"                                ",
"                                ",
"                                ",
"                                ",
"                                ",
"                                "
};
