/* XPM */
static char *_ccc3723bede4bd2a6eda28712b00789qbBiDSIhsILGTlG4[] = {
/* columns rows colors chars-per-pixel */
"32 32 13 1 ",
"  c None",
". c #7E0A57",
"X c #0B5B45",
"o c #E4152C",
"O c #AF1246",
"+ c #812C49",
"@ c #B75364",
"# c #218D57",
"$ c #3CBE52",
"% c #F09C18",
"& c #FFDE36",
"* c #DD936E",
"= c #F0C090",
/* pixels */
"                                ",
"                                ",
"                                ",
"              *****             ",
"            *=*******           ",
"          ****=********         ",
"         ***********=***        ",
"         *****=****=****        ",
"        *****=***********       ",
"        **=*****=****=*=*       ",
"       **=*******=****=*=*      ",
"       *******=*****=*****      ",
"      X@@@@@***=***=*@@@@+      ",
"      XX++++@@@@@@@@@@@@+XX     ",
"     $$XXXXX++++++++++++X$$     ",
"     $$#$$#XXXXXXXXXXX#$##$     ",
"       $$$$##$$##$#$$#$$$$      ",
"       .$$##$$$#$$#$$#$$..      ",
"       ...$..$$.$$$$$.....      ",
"       %&..ooOOOOOO$OOOo+.      ",
"       +%&oOOooOOooOOoo&&@      ",
"       +@%&&ooooooooo&&%++      ",
"       ++@%%&&&&&&&&&%@@++      ",
"       *++%%%%%@@@@@@++++*      ",
"       @*+%++++++++++++**@      ",
"       @@***+++++++++**@@@      ",
"        @@@**********@@@@       ",
"           @@@@@@@@@@@          ",
"                                ",
"                                ",
"                                ",
"                                "
};
