/* XPM */
static char *result[] = {
/* columns rows colors chars-per-pixel */
"32 32 49 1 ",
"  c #5F2D28",
". c #612F29",
"X c #66322B",
"o c #67332B",
"O c #68332B",
"+ c #69342C",
"@ c #6A342C",
"# c #6D362D",
"$ c #6F382E",
"% c #723A2F",
"& c #733B2F",
"* c #753C30",
"= c #7A3E31",
"- c #7D4032",
"; c #37474E",
": c #3B434A",
"> c #3E454A",
", c #3E454B",
"< c #38474E",
"1 c #3C474D",
"2 c #41474B",
"3 c #46474A",
"4 c #40474C",
"5 c #42484D",
"6 c #454B4E",
"7 c #474C4F",
"8 c #814534",
"9 c #834837",
"0 c #8A4836",
"q c #884E3B",
"w c #8D503C",
"e c #91543E",
"r c #9F5B41",
"t c #A66245",
"y c #B26645",
"u c #B86A47",
"i c #BF6F4A",
"p c #BA7450",
"a c #BD7752",
"s c #C87A51",
"d c #D89062",
"f c #DB9263",
"g c #DE9565",
"h c #DF9665",
"j c #E09665",
"k c #E29866",
"l c #E39967",
"z c #E49967",
"x c None",
/* pixels */
"xxxxxxxxxxxxxxxxxxxxxxxxxxxxxxxx",
"xxxxxxxxxxxxxxxxxxxxxxxxxxxxxxxx",
"xxxxxxxx;222222222222<xxxxxxxxxx",
"xxxxxxxx10000000000002xxxxxxxxxx",
"xxxxxxxx10000000000002xxxxxxxxxx",
"xxxxxxxx10000000000002xxxxxxxxxx",
"xxxxxxxx100OOo.+ +qa02xxxxxxxxxx",
"xxxxxxxx100Ouy8i$isar6xxxxxxxxxx",
"xxxxxxxx100Ouy8i$isaw5xxxxxxxxxx",
"xxxxxxxx100Ouy8i$isa#:xxxxxxxxxx",
"xxxxxxxx100Ouy8i$isa#:xxxxxxxxxx",
"xxxxxxxx100Ouy8i$isa=>xxxxxxxxxx",
"xxxxxxxx100Ouy8i$isa02xxxxxxxxxx",
"xxxxxxxx100Ofkhlglza02xxxxxxxxxx",
"xxxxxxxx10000000000002xxxxxxxxxx",
"xxxxxxxx10000000000002xxxxxxxxxx",
"xxxxxxxx10000000000002xxxxxxxxxx",
"xxxxxxxx10000000000002xxxxxxxxxx",
"xxxxxxxx100O&%X*.*ea02xxxxxxxxxx",
"xxxxxxxx100Ouy8i$isat7xxxxxxxxxx",
"xxxxxxxx100Ouy8i$isa94xxxxxxxxxx",
"xxxxxxxx100Ouy8i$isa#:xxxxxxxxxx",
"xxxxxxxx100Ouy8i$isa#:xxxxxxxxxx",
"xxxxxxxx100Ouy8i$isa-,xxxxxxxxxx",
"xxxxxxxx100Ouy8i$isa02xxxxxxxxxx",
"xxxxxxxx100@djjjjjjp02xxxxxxxxxx",
"xxxxxxxx10000000000002xxxxxxxxxx",
"xxxxxxxx10000000000002xxxxxxxxxx",
"xxxxxxxx;333333333333<xxxxxxxxxx",
"xxxxxxxxxxxxxxxxxxxxxxxxxxxxxxxx",
"xxxxxxxxxxxxxxxxxxxxxxxxxxxxxxxx",
"xxxxxxxxxxxxxxxxxxxxxxxxxxxxxxxx"
};
