/* XPM */
static char *_3da336b4ca8429dc4d2d4803104c97fSsK31bnvqsT4p6tm[] = {
/* columns rows colors chars-per-pixel */
"32 32 2 1 ",
"  c None",
". c #FF7E00",
/* pixels */
"..........................      ",
"     ...........          ...   ",
"   ..           ...          .. ",
"  .        .............       .",
" .   .........    .  .. ...     ",
".   . .........    .   .   .    ",
". ......   .....................",
"..  .     ...............    .  ",
".  .    .............. . ...  . ",
"   . .......... .   . ... .. ...",
"  ..... ...  ................. .",
".. ............ ......... ......",
". .............. .............  ",
"..................   ...........",
".... ...  .... ........ .....   ",
"...... .... .............. ..   ",
". ....................  ..  ..  ",
".......       ............  ..  ",
"..... ................ ...  ..  ",
"........  .....  ...   ..   ..  ",
"...........  ......    ..  .. . ",
" .....  ..........  ... .  .. . ",
".    ............... . .  ..  . ",
"...............     .  . . .  . ",
".... .. .... ..   ..  ... .   . ",
"     .... ................   .  ",
" ....    ..............      .  ",
".  .........    .......    ..   ",
"......                 ....     ",
"                                ",
"                                ",
"                                "
};
