/* XPM */
static char *_37181fd83a74a57b6665551ac9ba168KQJYovD6hkiJkuzS[] = {
/* columns rows colors chars-per-pixel */
"64 64 172 2 ",
"   c None",
".  c #2C2C3D",
"X  c #33333C",
"o  c #3B3B3A",
"O  c #4A2B1E",
"+  c #773F29",
"@  c #18473E",
"#  c #2B4D3B",
"$  c #20433D",
"%  c #5E4533",
"&  c #7D452D",
"*  c #77432C",
"=  c #7D4730",
"-  c #764932",
";  c #7D4A33",
":  c #774430",
">  c #5A682B",
",  c #69772B",
"<  c #002D43",
"1  c #003143",
"2  c #00334B",
"3  c #063646",
"4  c #123349",
"5  c #023E54",
"6  c #2D3946",
"7  c #1F494E",
"8  c #02455B",
"9  c #044B5F",
"0  c #024156",
"q  c #165E5B",
"w  c #2B4B56",
"e  c #024C61",
"r  c #0B4B60",
"t  c #065468",
"y  c #2A5062",
"u  c #126E63",
"i  c #056471",
"p  c #046378",
"a  c #056A76",
"s  c #097477",
"d  c #126F6D",
"f  c #576D53",
"g  c #607248",
"h  c #707C42",
"j  c #86392E",
"k  c #8F3C36",
"l  c #AE2D29",
"z  c #BA3526",
"x  c #C23D24",
"c  c #D53D2B",
"v  c #BE771C",
"b  c #81462E",
"n  c #81482E",
"m  c #91442B",
"M  c #94562B",
"N  c #804631",
"B  c #844B33",
"V  c #8A4E33",
"C  c #854E38",
"Z  c #984B30",
"A  c #875036",
"S  c #8B5036",
"D  c #8B523A",
"F  c #915236",
"G  c #93553A",
"H  c #99573B",
"J  c #96583B",
"K  c #9B593C",
"L  c #985430",
"P  c #A75A27",
"I  c #A64334",
"U  c #9C6C24",
"Y  c #B76F21",
"T  c #C2541E",
"R  c #DE591F",
"E  c #E35E1D",
"W  c #DA681F",
"Q  c #E96C1C",
"!  c #F46C1C",
"~  c #F6711D",
"^  c #F67B1C",
"/  c #E87B19",
"(  c #CE4922",
")  c #D34E21",
"_  c #D55220",
"`  c #E4432E",
"'  c #E35721",
"]  c #F25927",
"[  c #EF6322",
"{  c #F36224",
"}  c #F46B23",
"|  c #F47423",
" . c #AB6F44",
".. c #F47B65",
"X. c #7A872D",
"o. c #40A42F",
"O. c #60CE2F",
"+. c #60CE34",
"@. c #31A34D",
"#. c #35AD57",
"$. c #32BE67",
"%. c #27A670",
"&. c #23B27E",
"*. c #578E50",
"=. c #42B944",
"-. c #75AC7B",
";. c #4ACB4C",
":. c #8F8D1D",
">. c #9E8D1D",
",. c #92A01C",
"<. c #AFB119",
"1. c #BEB913",
"2. c #A9A917",
"3. c #9F9B2D",
"4. c #D7821F",
"5. c #F78A19",
"6. c #F68416",
"7. c #F89715",
"8. c #F99914",
"9. c #F79018",
"0. c #FAA70E",
"q. c #FCB70A",
"w. c #F78423",
"e. c #F9A532",
"r. c #D8C80A",
"t. c #D9CE19",
"y. c #FDC805",
"u. c #FFD801",
"i. c #FED500",
"p. c #FDCB1E",
"a. c #C3D32A",
"s. c #FDD32F",
"d. c #E3C923",
"f. c #8EAE41",
"g. c #85B554",
"h. c #AFB177",
"j. c #F99449",
"k. c #DEA254",
"l. c #FAB345",
"z. c #FAAD70",
"x. c #FBB37D",
"c. c #FED443",
"v. c #D5C964",
"b. c #FDDA6C",
"n. c #FEE57E",
"m. c #017A86",
"M. c #037385",
"N. c #048085",
"B. c #078A9F",
"V. c #048293",
"C. c #0799A5",
"Z. c #02A2A8",
"A. c #01B3B8",
"S. c #708787",
"D. c #1FC0AA",
"F. c #02BBC0",
"G. c #9FB0B8",
"H. c #95AAAE",
"J. c #F79F83",
"K. c #FABFA8",
"L. c #DFD893",
"P. c #FFF2AF",
"I. c #ABC0C1",
"U. c #B8D5D5",
"Y. c #AFE4D3",
"T. c #FDDCC5",
"R. c #DFF3DC",
"E. c #FDE6CC",
"W. c #FFF7CF",
"Q. c #DFE4E7",
"!. c #FEF4E1",
"~. c white",
/* pixels */
"                                                                                                                                ",
"                                                                                                                                ",
"                                                    G G G G G G F F V V V V V V                                                 ",
"                                                    G G G G G G F F V V V V V V                                                 ",
"                                            S S V V V V V V F F V V B B N N N N N N F F                                         ",
"                                            S S V V V V V V F F V V B B N N N N N N S V                                         ",
"                                        V V N N n n B N B B B B B B N N = = = = = = N N V V                                     ",
"                                        V V N N n n B B B B B B B B N N = = = = = = N N V V                                     ",
"                                    V V N N & & b b N N N N S S F F B B : : & & & & & & N N V V                                 ",
"                                    V V N N & & b b N N N N S S F F B B : : & & & & & & N N V V                                 ",
"                                V V b b & & & & & & b N V V     # # # # S V : : & & & & ; ; B B S S                             ",
"                                V V b b & & & & & & b b V V     # # # # S S : : & & & & ; ; B B S S                             ",
"                                N N & & & & & & N N V V H H < < r.r.2.2.    G G = = : : ; ; N N B B                             ",
"                                N N & & & & & & N N V V H H < < r.r.2.2.    G G = = : : ; ; N N B B                             ",
"                                & & * * + + B B F F H H K K < < r.r.o.o.        J J = = - - ; ; = =                             ",
"                                & & * * + + B B F F H H K K < < r.r.o.o.        J J = = - - ; ; = =                             ",
"                                & & = =     > > S.S.        h.h.O.O.o.o.        , , i i B B ; ; = =                             ",
"                                & & = =     > > S.S.        h.h.O.O.o.o.        , , i i B B ; ; = =                             ",
"                                B B S S G G @ @ d.d.U.U.M.M.Y.Y.+.+.=.=.i i I.I.D.D.5 5 G G B B B B                             ",
"                                B B S S G G @ @ d.d.U.U.M.M.Y.Y.+.+.=.=.i i I.I.D.D.5 5 G G B B B B                             ",
"                                B B D D H H     Z.Z.a.a.X.X.,.,.;.;.@.@.m.m.$.$.N.N.3 3 H H F F B B                             ",
"                                B B D D H H     Z.Z.a.a.X.X.,.,.;.;.@.@.m.m.$.$.N.N.3 3 H H S S B B                             ",
"                                B B D D < < < < 2 2 C.C.u u d d C.C.V.V.p p C.C.1 1 < < < < H J B B                             ",
"                                B B D D < < < < 2 2 C.C.u u d d C.C.V.V.p p C.C.1 1 < < < < J J B B                             ",
"                                ; ; w w L.L.t.t.R.R.1.1.a a d d $ $ q q m.m.<.<.t.t.F.F.A.A.r r B B                             ",
"                                ; ; w w L.L.t.t.R.R.1.1.a a d d $ $ q q m.m.<.<.t.t.F.F.A.A.r r ; ;                             ",
"                                & &         a a Z.Z.%.%.p p -.-.g.g.*.*.m.m.&.&.B.B.t t 4 4 D D ; ;                             ",
"                                & &         a a Z.Z.%.%.p p -.-.g.g.*.*.m.m.&.&.B.B.t t 4 4 D D ; ;                             ",
"                                N N G G H H K K 2 2 8 8 p p M.M.5 5 9 9 B.B.e e 2 2 H H J J D D D D                             ",
"                                N N G G H H K K 2 2 8 8 p p s M.5 5 9 9 B.B.e e 2 2 H H J J D D D D                             ",
"                                S S D D     9 9 f.f.C.C.y y g g i i i i @ @ M.M.#.#.e e J J G G S S                             ",
"                                S S D D     9 9 f.f.C.C.y y g g i i i i @ @ M.M.#.#.e e J J G G S S                             ",
"                                S S D D     5 5 8 8 0 0 h h X.X.t t s s s s 5 5 8 8 5 5 6 6 G G S S                             ",
"                                S S D D     5 5 8 8 0 0 h h X.X.t t s s s s 5 5 8 8 5 5 6 6 G G S S                             ",
"                                B B H H H K K K 1 1 f f :.:. . .6.6.Y Y - - % % 1 1 K K J J G G S S                             ",
"                                B B H H K K K K 1 1 f f :.:. . .6.6.Y Y - - % % 1 1 K K J J G G S S                             ",
"                                N N O O K K     H.H.J.J.v.v.k.k.w.w.4.4.v v ! ! k k     H H G G S S                             ",
"                                N N O O K K     H.H.J.J.v.v.k.k.| w.4.4.v v ! ! k k     H H G G S S                             ",
"                                B B H H K K 1 1 Q.Q.u.u.u.u.P.P.~.~.T.T.0.0.T T Q Q < < H H G G S S                             ",
"                                B B H H K K 1 1 Q.Q.u.u.u.u.P.P.~.~.T.T.0.0.T T Q Q < < H H G G S S                             ",
"                                B B H H     G.G.e.e.W.W.8.8.0.0.u.u.q.q.~ ~ ^ ^ c c P P     J J S S                             ",
"                                B B H H     G.G.e.e.W.W.8.8.0.0.u.u.q.q.~ ~ ^ ^ c c P P     J J S A                             ",
"                                B B H H     3.3.E.E.p.p.z.z.!.!.w.w.j.j.x.x.] ] Q Q I I     G G D S                             ",
"                                B B H H     3.3.E.E.p.p.z.z.!.!.w.w.j.j.x.x.] ] Q Q I I     G G D D                             ",
"                                S S G G     L L 0.0.j.j.5.5.s.s.| | ^ ^ 0.0.{ { E E j j     F G S S                             ",
"                                S S G G     L L 0.0.j.j.5.5.s.s.| | ^ ^ 0.0.{ { E E j j     G G S S                             ",
"                                S S D D     U U K.K.c.c.~ ~ l.l.u.u.q.q.} } { { R R j j 7 7 D D B B                             ",
"                                S S D D     U U K.K.c.c.~ ~ l.l.u.u.q.q.} } { { R R j j 7 7 D D B B                             ",
"                                A A D D     >.>.i.i.....n.n.y.y.{ { | | y.y.6.6.z z P P 6 6 C C C C                             ",
"                                A A D D     >.>.i.i.....n.n.y.y.{ { | | y.y.6.6.z z P P 6 6 C C C C                             ",
"                                B B D D     Z Z 5.5.b.b.8.8.7.7.9.9.9.9.Q Q ) ) ) ) m m     D D A S                             ",
"                                B B D D     Z Z 5.5.b.b.8.8.7.7.9.9.9.9.Q Q ) ) ) ) m m     D D A A                             ",
"                                V V D D     4 4 W W } } 7.7.! ! ~ ~ ` ` _ _ x x ` ` l l H H G G S S                             ",
"                                V V D D     4 4 W W } } 7.7.! ! ~ ~ ` ` _ _ x x ` ` l l H H G G S S                             ",
"                                S S G D H H     M M [ [ / / ' ' R R _ _ ) ) ( ( M M     H H G G S S                             ",
"                                S S G G H H     M M { [ / / ' ' R R _ _ ) ) ( ( M M     H H G G S S                             ",
"                                S F G G H H K K     o o X X X X . . X X X X o o     K K H H G G S S                             ",
"                                S S G G H H K K     o o X X X X . . X X X X o o     K K H H G G S S                             ",
"                                V V G G H H K K K K K K K K K K K K K K K K K K K K K K H H J J B B                             ",
"                                V V G G H H K K K K K K K K K K K K K K K K K K K K K K H H J J B B                             ",
"                                                                                                                                ",
"                                                                                                                                ",
"                                                                                                                                ",
"                                                                                                                                "
};
