/* XPM */
static char *result[] = {
/* columns rows colors chars-per-pixel */
"32 32 6 1 ",
"  c #477F91",
". c #4C8FA6",
"X c #509EBA",
"o c #61B0C1",
"O c #7BBBC8",
"+ c None",
/* pixels */
"++++++++++++++++++++++++++++++++",
"++++++++++++++++++++++++++++++++",
"++++++++++++++++++++++++++++++++",
"++++++++++++++++++++++++++++++++",
"++++++++++++++++++++++++++++++++",
"++++++++++++++++++++++++++++++++",
"++++++++++++++++++++++++++++++++",
"++++++++++++++++++++++++++++++++",
"++++++++...X..   X...   ++++++++",
"++++++++..X......X......++++++++",
"++++++++X.o...Xo.O.....X++++++++",
"++++++++.XXoOo  Xo...Xo ++++++++",
"++++++++...X.... X..o  .++++++++",
"++++++++...X......Xo ...++++++++",
"++++++++..o X......o....++++++++",
"++++++++oo . XXXX.X.....++++++++",
"++++++++.  .X... Xo.....++++++++",
"++++++++....o...  O....X++++++++",
"++++++++X..oO.... XoOXo ++++++++",
"++++++++ Xo.......o.   .++++++++",
"++++++++. X......o......++++++++",
"++++++++.. o....X  ....X++++++++",
"++++++++Xo..XooX ....oo ++++++++",
"++++++++. oX... ..XoX. .++++++++",
"++++++++++++++++++++++++++++++++",
"++++++++++++++++++++++++++++++++",
"++++++++++++++++++++++++++++++++",
"++++++++++++++++++++++++++++++++",
"++++++++++++++++++++++++++++++++",
"++++++++++++++++++++++++++++++++",
"++++++++++++++++++++++++++++++++",
"++++++++++++++++++++++++++++++++"
};
