/* XPM */
static char *result[] = {
/* columns rows colors chars-per-pixel */
"32 32 12 1 ",
"  c black",
". c #6F402B",
"X c #7C4830",
"o c #ED1C24",
"O c #9C5A3C",
"+ c #A39A00",
"@ c #CCC100",
"# c #FFF200",
"$ c #00B7EF",
"% c gray80",
"& c white",
"* c None",
/* pixels */
"********************************",
"********************************",
"********************************",
"********************************",
"********************************",
"********************************",
"********************************",
"***********@#@###@+*************",
"***********$&#$&@@@*************",
"***********&&#&&#+@*************",
"***********#@## #@@*************",
"***********#   #@@@*************",
"***********@#&###@&*************",
"***********#@##@#@#*************",
"***********&&o&&&%#*************",
"***********OOoOOOX#*************",
"***********#XX.XXX#*************",
"*************#**#***************",
"*************&**&***************",
"*************o**o***************",
"*************&**&***************",
"************  *  ***************",
"********************************",
"********************************",
"********************************",
"********************************",
"********************************",
"********************************",
"********************************",
"********************************",
"********************************",
"********************************"
};
