/* XPM */
static char *a03ae66e3d3d45fcae3e474af26044df0Vn7OxQGPIRtw6BL[] = {
/* columns rows colors chars-per-pixel */
"64 64 12 1 ",
"  c None",
". c black",
"X c #6E4231",
"o c #7A4936",
"O c #EA2631",
"+ c #995A41",
"@ c #A19723",
"# c #CABE2D",
"$ c #FEF038",
"% c #24B6EC",
"& c #CBCBCB",
"* c white",
/* pixels */
"                                                                ",
"                                                                ",
"                                                                ",
"                                                                ",
"                                                                ",
"                                                                ",
"                ####$$$$####$$$$$$$$$$$$####@@@@                ",
"                ####$$$$####$$$$$$$$$$$$####@@@@                ",
"                ####$$$$####$$$$$$$$$$$$####@@@@                ",
"                ####$$$$####$$$$$$$$$$$$####@@@@                ",
"                %%%%****$$$$%%%%****############                ",
"                %%%%****$$$$%%%%****############                ",
"                ********$$$$********$$$$@@@@####                ",
"                ********$$$$********$$$$@@@@####                ",
"                ********$$$$********$$$$@@@@####                ",
"                ********$$$$********$$$$@@@@####                ",
"                $$$$####$$$$$$$$....$$$$########                ",
"                $$$$####$$$$$$$$....$$$$########                ",
"                $$$$####$$$$$$$$....$$$$########                ",
"                $$$$####$$$$$$$$....$$$$########                ",
"                $$$$............$$$$############                ",
"                $$$$............$$$$############                ",
"                $$$$............$$$$############                ",
"                $$$$............$$$$############                ",
"                ####$$$$****$$$$$$$$$$$$####****                ",
"                ####$$$$****$$$$$$$$$$$$####****                ",
"                $$$$####$$$$$$$$####$$$$####$$$$                ",
"                $$$$####$$$$$$$$####$$$$####$$$$                ",
"                $$$$####$$$$$$$$####$$$$####$$$$                ",
"                $$$$####$$$$$$$$####$$$$####$$$$                ",
"                ********OOOO************&&&&$$$$                ",
"                ********OOOO************&&&&$$$$                ",
"                ********OOOO************&&&&$$$$                ",
"                ********OOOO************&&&&$$$$                ",
"                ++++++++OOOO++++++++++++oooo$$$$                ",
"                ++++++++OOOO++++++++++++oooo$$$$                ",
"                ++++++++OOOO++++++++++++oooo$$$$                ",
"                ++++++++OOOO++++++++++++oooo$$$$                ",
"                $$$$ooooooooXXXXoooooooooooo$$$$                ",
"                $$$$ooooooooXXXXoooooooooooo$$$$                ",
"                        $$$$        $$$$                        ",
"                        $$$$        $$$$                        ",
"                        $$$$        $$$$                        ",
"                        $$$$        $$$$                        ",
"                        ****        ****                        ",
"                        ****        ****                        ",
"                        ****        ****                        ",
"                        ****        ****                        ",
"                        OOOO        OOOO                        ",
"                        OOOO        OOOO                        ",
"                        OOOO        OOOO                        ",
"                        OOOO        OOOO                        ",
"                        ****        ****                        ",
"                        ****        ****                        ",
"                    ........    ........                        ",
"                    ........    ........                        ",
"                    ........    ........                        ",
"                    ........    ........                        ",
"                                                                ",
"                                                                ",
"                                                                ",
"                                                                ",
"                                                                ",
"                                                                "
};
