/* XPM */
static char *ba0ab147395447eed0f858c3239f62a3GAfo8KcWLVDl10ST[] = {
/* columns rows colors chars-per-pixel */
"32 32 166 2 ",
"   c None",
".  c black",
"X  c #070707",
"o  c #0F0E03",
"O  c gray3",
"+  c #090909",
"@  c gray4",
"#  c #101010",
"$  c #161616",
"%  c #1D1D1D",
"&  c gray12",
"*  c #3F3A0E",
"=  c #202020",
"-  c gray13",
";  c #232323",
":  c #252525",
">  c #2A2A2A",
",  c gray17",
"<  c #2D2D2D",
"1  c gray18",
"2  c #302F2D",
"3  c #302E2E",
"4  c #312F2E",
"5  c #35342D",
"6  c #37372D",
"7  c #38382D",
"8  c #39382D",
"9  c #3A382D",
"0  c #3B3A2D",
"q  c #3E3C2E",
"w  c gray19",
"e  c #313131",
"r  c #323232",
"t  c gray21",
"y  c #3A3938",
"u  c #3A3A3A",
"i  c #5F1D19",
"p  c #750505",
"a  c #5A3F36",
"s  c #742C25",
"d  c #763B32",
"f  c #763F35",
"g  c #6F6619",
"h  c #74721D",
"j  c #43412E",
"k  c #45432E",
"l  c #47442E",
"z  c #49462E",
"x  c #4F4C2F",
"c  c #54502F",
"v  c #57532F",
"b  c #5E5A2F",
"n  c #53413A",
"m  c #5C463D",
"M  c #605E2F",
"N  c #62453A",
"B  c #615C30",
"V  c #6E6831",
"C  c #7B7432",
"Z  c #7D7532",
"A  c gray30",
"S  c gray33",
"D  c #5D5D5D",
"F  c #664B41",
"G  c #6B4E43",
"H  c #6D4D41",
"J  c #615F49",
"K  c #795548",
"L  c #75714D",
"P  c #7D784B",
"I  c #7B7857",
"U  c #606060",
"Y  c gray38",
"T  c #7B7B7B",
"R  c gray50",
"E  c #830505",
"W  c #AE0303",
"Q  c #91210B",
"!  c #B8200A",
"~  c #CE0404",
"^  c #DF0101",
"/  c #83791E",
"(  c #877E33",
")  c #827E60",
"_  c #9F9224",
"`  c #888033",
"'  c #AFA128",
"]  c #BFB02C",
"[  c #B0A335",
"{  c #B3A635",
"}  c #BDAF36",
"|  c #CFBE2F",
" . c #D7C738",
".. c #D0CE38",
"X. c #DFCE38",
"o. c #CDDC39",
"O. c #CFDC39",
"+. c #D6D436",
"@. c #D0DC39",
"#. c #D3DD39",
"$. c #D6DE39",
"%. c #D9DF39",
"&. c #E4D234",
"*. c #E7D435",
"=. c #EBD836",
"-. c #EDDA36",
";. c #EFDC37",
":. c #E1D039",
">. c #E4D339",
",. c #EEDC39",
"<. c #F3DF38",
"1. c #F0DD3A",
"2. c #F2DF3A",
"3. c #DBE039",
"4. c #DCE039",
"5. c #E2E239",
"6. c #E3E239",
"7. c #E9E43A",
"8. c #EAE43A",
"9. c #F5E138",
"0. c #F7E339",
"q. c #F2E73A",
"w. c #F3E73A",
"e. c #F9E539",
"r. c #F8E93A",
"t. c #FBEA3A",
"y. c #FDE93A",
"u. c #FCEA3A",
"i. c #FEEA3A",
"p. c #FFEB3B",
"a. c #BFB559",
"s. c #B0AA73",
"d. c #FFEC47",
"f. c #EDE858",
"g. c #FFED53",
"h. c #FFEE59",
"j. c #EADC63",
"k. c #EEE067",
"l. c #FFF178",
"z. c #888888",
"x. c gray64",
"c. c #A4A4A4",
"v. c gray66",
"b. c #AFAFAF",
"n. c #BAB7A4",
"m. c gray69",
"M. c #B8B5B4",
"N. c #BBB7B6",
"B. c gray74",
"V. c #C6BFBD",
"C. c #E6ED9C",
"Z. c #F1E896",
"A. c #FBF49C",
"S. c #FFF59D",
"D. c #FFF6A9",
"F. c #C4C1C0",
"G. c gray81",
"H. c #D5C9C5",
"J. c #D5D5D5",
"K. c #E6E6E6",
"L. c gray92",
"P. c #EEEEEE",
"I. c #F8FAE6",
"U. c #FFFCE6",
"Y. c #F1F1F1",
"T. c white",
/* pixels */
"                                                                ",
"              < < < < < < < < < < < < < < < < <                 ",
"            < o.+.p.=.p.*.p.p.-.p.1.e.0.0.p.p.p.<               ",
"            < 7.h ;./ &.* p.p.g p._ | ] ' 5.w.p.<               ",
"            < p.p.o _ | * p.p.p.. _ | * p.o.7.p.<               ",
"            < o.C.T.T.T.T.T.p.D.T.T.T.T.T.p.p.p.<               ",
"            < r.A.T.& J.T.T.p.D.T.& J.T.T.p.p.p.<               ",
"            < p.S.T.. G.L.K.p.D.T.. G.T.T.p.5.o.<               ",
"            < p.S.T.. G.L P p.D.T.. G.T.T.p.5.o.<               ",
"            < p.S.T.T.T.I ,.B n.T.T.T.Y.P.p.7.%.<               ",
"            < 4.f.l.l.l.k.( V a.l.l.l.) j.p.p.p.<               ",
"            < $.7.p.1. .p.p.p.p.p.p.X.c 1.p.p.p.<               ",
"            < p.p.p.:.k C C C C C C 8 [ ..5.p.p.<               ",
"            e 8 r.p.p.p.T.l.g.T.p.p.p.p.3.@.p.< e y             ",
"          S T 6 o.r.p.p.S.h.d.S.p.p.p.w.o.@.p.< z.T.<           ",
"          S T 6 o.o.p.p.w.@.p.p.p.p.p.p.r.p.p.< z.T.<           ",
"          q x 8 5.5.p.p.o.o.p.p.p.p.p.p.p.p.p.< Y x.<           ",
"          c C y U.U.U.U.I.I.Q ! U.U.U.U.U.U.U.< Z j             ",
"          c C t B.B.V.b.M.M.p E H.b.b.M.F.B.B.< ` l             ",
"          c C 3 F F H a N i ^ W K a a N G F F < ` l             ",
"          c C 3 K K K K K s ~ d K K K K K K K < ` l             ",
"            k 3 K K K K K K f K K K K K K K K < z { } b         ",
"            e < n K m < < < < < < < < K K < < < < , >.M         ",
"              < n K m <           < < K K < <                   ",
"              e , 8 6 ,             e 3 8 ,                     ",
"                  Z.s.                J S.e                     ",
"                  Y.m.                Y T.e                     ",
"                  v.R                 A m.e                     ",
"              , , @ $               , - @ e                     ",
"            e c.. & #             D - X @ e                     ",
"              - - - :             , - - - e                     ",
"                                                                "
};
