/* XPM */
static char *_406f74f5a324c5f914fa4ee27586b48Wz3o9B6goWAqF7by[] = {
/* columns rows colors chars-per-pixel */
"32 32 8 1 ",
"  c None",
". c black",
"X c #9B3A3B",
"o c #B0494A",
"O c #BF5C5D",
"+ c #C59C9C",
"@ c #CDAAAA",
"# c #DEBEBE",
/* pixels */
"                                ",
"                                ",
" .                              ",
"                                ",
"                                ",
"                                ",
"                                ",
"                                ",
"         OoooX#OOoooX@O         ",
"        OooooX#OooooX@Oo        ",
"        ooooXX#ooooXX@oo        ",
"        oooXXX#oooXXX@oo        ",
"        ######@@@@@@@@++        ",
"        oX#OOoooX@OOoooX        ",
"        oX@OooooX@OooooX        ",
"        XX@ooooXX@ooooXX        ",
"        XX@oooXXX@oooXXX        ",
"        @@@@@@@@@@@@++++        ",
"        OOoooX@OOoooX+OO        ",
"        OooooX@OooooX+Oo        ",
"        ooooXX@ooooXX+oo        ",
"        oooXXX@oooXXX+oo        ",
"        @@@@@@++++++++++        ",
"         X+OOoooX+OOooo         ",
"                                ",
"                                ",
"                                ",
"                                ",
"                                ",
"                                ",
"                                ",
"                                "
};
