/* XPM */
static char *result[] = {
/* columns rows colors chars-per-pixel */
"32 32 8 1 ",
"  c #1B5E20",
". c #2E7D32",
"X c #0CA50C",
"o c #0DB80D",
"O c #0FCD0F",
"+ c #27D227",
"@ c #438A47",
"# c None",
/* pixels */
"################################",
"################################",
"################################",
"################################",
"################################",
"################################",
"################################",
"################################",
"################################",
"################################",
"################################",
"#############XXXXX##############",
"############XOO+++X#############",
"###########XoOOOO++X############",
"###########XooOOOO+X############",
"###########XoooOOOOX############",
"############XoooooX#############",
"#############XXXXX##############",
"############## @ ###############",
"############# ..@ ##############",
"############# ..@ ##############",
"################################",
"################################",
"################################",
"################################",
"################################",
"################################",
"################################",
"################################",
"################################",
"################################",
"################################"
};
